<svg width="131" height="89" viewBox="0 0 131 89" fill="none" xmlns="http://www.w3.org/2000/svg">
<path d="M38.064 6.68C38.736 6.52 39.232 6.52 39.552 6.68C39.968 6.872 40.032 7.288 39.744 7.928C39.2 9.208 38 10.296 36.144 11.192C35.536 11.48 34.944 11.704 34.368 11.864C33.536 12.056 31.92 12.168 29.52 12.2H28.176H23.616L21.024 22.424L18.288 33.416C17.744 35.304 17.12 37.08 16.416 38.744C15.776 40.312 15.36 41.288 15.168 41.672C14.56 42.632 13.52 43.4 12.048 43.976C11.824 44.04 11.616 44.104 11.424 44.168C10.72 44.328 10.224 44.328 9.936 44.168C9.68 44.04 9.552 43.832 9.552 43.544C9.584 43.448 9.76 43.016 10.08 42.248C11.2 39.752 12.064 37.336 12.672 35C12.896 34.328 13.84 30.552 15.504 23.672C17.232 16.792 18.16 13.208 18.288 12.92C18.32 12.76 18.432 12.6 18.624 12.44L18.816 12.2H14.064C10.864 12.232 9.184 12.264 9.024 12.296C8.672 12.424 8.368 12.632 8.112 12.92C7.664 13.56 7.44 14.248 7.44 14.984C7.44 15.176 7.376 15.4 7.248 15.656C7.184 15.816 6.976 16.104 6.624 16.52C5.856 17.256 4.928 17.816 3.84 18.2C3.584 18.296 3.232 18.36 2.784 18.392C2.368 18.392 2.112 18.36 2.016 18.296C1.696 18.136 1.584 17.656 1.68 16.856C2 14.776 3.376 12.856 5.808 11.096C6.512 10.584 7.28 10.12 8.112 9.704C9.552 8.968 11.008 8.504 12.48 8.312C12.832 8.248 16.72 8.216 24.144 8.216H35.184L35.616 7.928C36.32 7.384 37.136 6.968 38.064 6.68ZM64.4891 12.84C64.5424 12.8133 64.9024 12.8 65.5691 12.8C66.1824 12.8267 66.5691 12.8667 66.7291 12.92C67.5291 13.1333 68.0491 13.5333 68.2891 14.12C68.4757 14.44 68.5824 14.84 68.6091 15.32C68.6357 16.0133 68.4491 16.88 68.0491 17.92C67.5424 19.36 66.9691 20.5867 66.3291 21.6C65.7957 22.4267 64.9557 23 63.8091 23.32C63.5157 23.4 63.2357 23.44 62.9691 23.44C62.7824 23.44 62.6357 23.4 62.5291 23.32C62.3157 23.1867 62.2091 23.0133 62.2091 22.8C62.2091 22.6667 62.3557 22.2933 62.6491 21.68C63.1557 20.6933 63.5557 19.84 63.8491 19.12C64.0891 18.4 64.2091 17.8267 64.2091 17.4C64.2091 16.8933 64.1291 16.5467 63.9691 16.36C63.8891 16.2533 63.7557 16.16 63.5691 16.08C63.2224 15.9733 62.7157 15.9333 62.0491 15.96C60.5824 16.0933 59.3691 16.4667 58.4091 17.08C57.5824 17.6667 56.8357 18.3733 56.1691 19.2C54.5957 21.1733 53.4491 23.6533 52.7291 26.64C51.7157 30.7467 51.9557 33.9733 53.4491 36.32C53.8491 36.96 54.3424 37.48 54.9291 37.88C55.7824 38.5467 56.8757 38.88 58.2091 38.88C58.3691 38.88 58.5157 38.8667 58.6491 38.84C60.3291 38.6533 61.7424 37.72 62.8891 36.04C63.2624 35.5067 63.6757 35.08 64.1291 34.76C64.9024 34.2267 65.6757 33.96 66.4491 33.96C66.7424 33.96 66.9557 34.08 67.0891 34.32C67.1957 34.48 67.1957 34.72 67.0891 35.04C66.9824 35.2533 66.6491 35.7467 66.0891 36.52C64.1424 38.92 61.6891 40.5733 58.7291 41.48C58.1424 41.6667 57.5557 41.8 56.9691 41.88C56.0624 42.04 55.2091 42.0667 54.4091 41.96C53.6091 41.88 52.7957 41.64 51.9691 41.24C50.7957 40.6533 49.8757 39.8267 49.2091 38.76C48.1957 37.1867 47.7157 35.1067 47.7691 32.52C47.7957 31.1333 48.0091 29.64 48.4091 28.04C49.5291 23.56 51.5157 20.0133 54.3691 17.4C56.2091 15.6133 58.3557 14.3333 60.8091 13.56C61.8757 13.1867 63.1024 12.9467 64.4891 12.84ZM80.5428 13.72H82.5828C83.1695 13.88 83.6628 14.1733 84.0628 14.6C84.4895 15.08 84.7028 15.64 84.7028 16.28C84.7028 17.2667 84.5295 18.7467 84.1828 20.72C83.9428 22.2133 83.5695 23.9333 83.0628 25.88C82.8495 26.6533 82.7428 27.0533 82.7428 27.08V27.16H87.1428H91.5428L91.7828 26.24C93.0361 22 94.2095 18.6267 95.3028 16.12C95.4361 15.7733 95.5428 15.5467 95.6228 15.44C95.9428 14.9067 96.5028 14.4533 97.3028 14.08C97.8095 13.84 98.2895 13.7067 98.7428 13.68C99.0095 13.68 99.1961 13.7067 99.3028 13.76C99.4361 13.8133 99.5161 13.88 99.5428 13.96C99.6761 14.12 99.6361 14.52 99.4228 15.16C99.3695 15.2667 99.3161 15.4 99.2628 15.56C96.6228 22.52 94.8495 28.4933 93.9428 33.48C93.5161 35.6133 93.3028 37.2667 93.3028 38.44C93.3028 38.76 93.3428 39 93.4228 39.16C93.6628 39.6133 94.0761 39.8267 94.6628 39.8C95.3828 39.8 95.8495 39.7467 96.0628 39.64C96.1428 39.6133 96.1961 39.5333 96.2228 39.4C96.4628 38.68 97.1295 38.0667 98.2228 37.56C98.6761 37.3467 99.1161 37.2133 99.5428 37.16L99.9428 37.12L100.183 37.2C100.529 37.4133 100.609 37.8 100.423 38.36C99.8628 39.8 98.7028 40.96 96.9428 41.84C95.4761 42.5067 93.8228 42.88 91.9828 42.96C91.2628 42.96 90.7428 42.88 90.4228 42.72C89.8361 42.4533 89.4228 42.08 89.1828 41.6C88.9428 41.12 88.8761 40.4133 88.9828 39.48C89.2228 36.76 89.7028 34.0267 90.4228 31.28C90.6095 30.5333 90.7028 30.12 90.7028 30.04L90.5028 30.12C90.0495 30.2267 88.4761 30.28 85.7828 30.28H81.8228C81.8228 30.4667 81.3028 32.08 80.2628 35.12C79.1428 38.4 78.4361 40.28 78.1428 40.76C77.7695 41.4267 77.1028 41.96 76.1428 42.36C75.6628 42.52 75.2495 42.6133 74.9028 42.64C74.6361 42.64 74.4361 42.6 74.3028 42.52C74.0895 42.3867 73.9828 42.2133 73.9828 42C73.9828 41.84 74.1428 41.4 74.4628 40.68C75.7961 37.1067 76.8895 33.84 77.7428 30.88L77.9428 30.28H76.1028H74.2628L74.0628 30.16C73.8495 30.0267 73.7428 29.8267 73.7428 29.56C73.8228 28.92 74.3828 28.3067 75.4228 27.72C75.5295 27.6667 75.6361 27.6133 75.7428 27.56C76.2228 27.32 76.8361 27.1867 77.5828 27.16H77.7828H78.7828L78.8228 27C79.4895 24.52 79.9295 22.1867 80.1428 20C80.3295 18.6667 80.3428 17.84 80.1828 17.52C79.8895 16.9333 79.1561 16.72 77.9828 16.88C77.8761 16.88 77.7561 16.8933 77.6228 16.92C76.3695 17.08 75.4095 17.5067 74.7428 18.2C74.2895 18.6533 73.8495 19.2667 73.4228 20.04C73.2095 20.4667 73.0228 20.76 72.8628 20.92C71.9295 21.7733 70.9161 22.2533 69.8228 22.36C69.6895 22.36 69.5428 22.32 69.3828 22.24C69.0361 22.0267 68.9961 21.6533 69.2628 21.12C69.2895 21.04 69.3295 20.9467 69.3828 20.84C70.0228 19.5867 70.8495 18.48 71.8628 17.52C74.2628 15.28 77.1561 14.0133 80.5428 13.72Z" fill="#0085FF"/>
<path d="M42.8363 12.88C43.3163 12.8267 43.8229 12.8 44.3563 12.8C45.2629 12.8267 46.0229 12.92 46.6363 13.08C47.9429 13.4 48.6363 14.1467 48.7163 15.32C48.7429 15.8 48.6629 16.2933 48.4763 16.8C48.2096 17.4933 47.8896 18.0267 47.5163 18.4C46.6629 19.28 45.6363 19.76 44.4363 19.84C44.1163 19.84 43.9029 19.7067 43.7963 19.44C43.7429 19.3333 43.7296 19.2 43.7563 19.04C43.7563 18.88 43.8496 18.68 44.0363 18.44C44.2496 18.0133 44.3563 17.64 44.3563 17.32C44.2763 16.7333 44.0229 16.3867 43.5963 16.28C42.6896 15.9867 41.8096 15.8667 40.9563 15.92C39.9163 16 39.0096 16.28 38.2363 16.76C37.1429 17.48 36.5029 18.52 36.3163 19.88C36.2363 20.3867 36.2629 20.8533 36.3963 21.28C36.7163 22.4267 37.5696 23.2667 38.9563 23.8C39.8896 24.2 40.9296 24.4 42.0763 24.4C42.3429 24.4 42.5563 24.4933 42.7163 24.68C43.0363 25.0533 42.8629 25.5733 42.1963 26.24C42.1429 26.2667 42.0896 26.3067 42.0363 26.36C41.1296 27.1333 40.2096 27.52 39.2763 27.52C37.9963 27.52 36.7829 27.88 35.6363 28.6C33.9296 29.6667 32.7296 31.2133 32.0362 33.24C31.9829 33.4267 31.9296 33.6133 31.8763 33.8C31.7963 34.0667 31.7563 34.4133 31.7563 34.84C31.7563 35.24 31.7829 35.5467 31.8363 35.76C32.2363 36.9867 33.1296 37.84 34.5163 38.32C35.5029 38.6667 36.4629 38.8 37.3963 38.72C39.1296 38.56 40.6363 37.6267 41.9163 35.92C42.3163 35.3867 42.7296 34.9867 43.1563 34.72C43.9296 34.2133 44.6763 33.96 45.3963 33.96C45.6896 33.96 45.9029 34.08 46.0363 34.32C46.2229 34.6133 46.0496 35.0933 45.5163 35.76C43.6496 38.2667 41.2229 40.0667 38.2363 41.16C38.1563 41.1867 38.0763 41.2133 37.9963 41.24C35.8096 41.9333 33.8363 42.08 32.0763 41.68C30.4763 41.3867 29.2096 40.64 28.2763 39.44C27.3163 38.2133 27.1029 36.7333 27.6363 35C28.3829 32.36 29.9829 30.0533 32.4363 28.08C33.2896 27.4133 33.9829 26.9333 34.5163 26.64C34.5963 26.5867 34.6496 26.5467 34.6763 26.52L34.5163 26.4C34.3029 26.2933 33.9029 26.0133 33.3163 25.56C32.7296 25.0267 32.3029 24.3067 32.0362 23.4C31.9829 23.16 31.9563 22.7867 31.9563 22.28C31.9563 21.7467 31.9829 21.36 32.0362 21.12C32.2763 19.92 32.8496 18.7733 33.7563 17.68C34.3429 16.96 34.9163 16.4 35.4763 16C37.6896 14.2133 40.1429 13.1733 42.8363 12.88Z" fill="#FF018A"/>
<path d="M6.072 59.636V60.524H3.792V68H2.7V60.524H0.408V59.636H6.072ZM10.6802 61.304C11.1762 61.304 11.6242 61.412 12.0242 61.628C12.4242 61.836 12.7362 62.152 12.9602 62.576C13.1922 63 13.3082 63.516 13.3082 64.124V68H12.2282V64.28C12.2282 63.624 12.0642 63.124 11.7362 62.78C11.4082 62.428 10.9602 62.252 10.3922 62.252C9.81619 62.252 9.35619 62.432 9.01219 62.792C8.67619 63.152 8.50819 63.676 8.50819 64.364V68H7.41619V59.12H8.50819V62.36C8.72419 62.024 9.02019 61.764 9.39619 61.58C9.78019 61.396 10.2082 61.304 10.6802 61.304ZM21.092 64.46C21.092 64.668 21.08 64.888 21.056 65.12H15.8C15.84 65.768 16.06 66.276 16.46 66.644C16.868 67.004 17.36 67.184 17.936 67.184C18.408 67.184 18.8 67.076 19.112 66.86C19.432 66.636 19.656 66.34 19.784 65.972H20.96C20.784 66.604 20.432 67.12 19.904 67.52C19.376 67.912 18.72 68.108 17.936 68.108C17.312 68.108 16.752 67.968 16.256 67.688C15.768 67.408 15.384 67.012 15.104 66.5C14.824 65.98 14.684 65.38 14.684 64.7C14.684 64.02 14.82 63.424 15.092 62.912C15.364 62.4 15.744 62.008 16.232 61.736C16.728 61.456 17.296 61.316 17.936 61.316C18.56 61.316 19.112 61.452 19.592 61.724C20.072 61.996 20.44 62.372 20.696 62.852C20.96 63.324 21.092 63.86 21.092 64.46ZM19.964 64.232C19.964 63.816 19.872 63.46 19.688 63.164C19.504 62.86 19.252 62.632 18.932 62.48C18.62 62.32 18.272 62.24 17.888 62.24C17.336 62.24 16.864 62.416 16.472 62.768C16.088 63.12 15.868 63.608 15.812 64.232H19.964ZM34.4926 61.424L32.4406 68H31.3126L29.7286 62.78L28.1446 68H27.0166L24.9526 61.424H26.0686L27.5806 66.944L29.2126 61.424H30.3286L31.9246 66.956L33.4126 61.424H34.4926ZM38.4443 68.108C37.8283 68.108 37.2683 67.968 36.7643 67.688C36.2683 67.408 35.8763 67.012 35.5883 66.5C35.3083 65.98 35.1683 65.38 35.1683 64.7C35.1683 64.028 35.3123 63.436 35.6003 62.924C35.8963 62.404 36.2963 62.008 36.8003 61.736C37.3043 61.456 37.8683 61.316 38.4923 61.316C39.1163 61.316 39.6803 61.456 40.1843 61.736C40.6883 62.008 41.0843 62.4 41.3723 62.912C41.6683 63.424 41.8163 64.02 41.8163 64.7C41.8163 65.38 41.6643 65.98 41.3603 66.5C41.0643 67.012 40.6603 67.408 40.1483 67.688C39.6363 67.968 39.0683 68.108 38.4443 68.108ZM38.4443 67.148C38.8363 67.148 39.2043 67.056 39.5483 66.872C39.8923 66.688 40.1683 66.412 40.3763 66.044C40.5923 65.676 40.7003 65.228 40.7003 64.7C40.7003 64.172 40.5963 63.724 40.3883 63.356C40.1803 62.988 39.9083 62.716 39.5723 62.54C39.2363 62.356 38.8723 62.264 38.4803 62.264C38.0803 62.264 37.7123 62.356 37.3763 62.54C37.0483 62.716 36.7843 62.988 36.5843 63.356C36.3843 63.724 36.2843 64.172 36.2843 64.7C36.2843 65.236 36.3803 65.688 36.5723 66.056C36.7723 66.424 37.0363 66.7 37.3643 66.884C37.6923 67.06 38.0523 67.148 38.4443 67.148ZM44.3441 62.492C44.5361 62.116 44.8081 61.824 45.1601 61.616C45.5201 61.408 45.9561 61.304 46.4681 61.304V62.432H46.1801C44.9561 62.432 44.3441 63.096 44.3441 64.424V68H43.2521V61.424H44.3441V62.492ZM48.8207 59.12V68H47.7287V59.12H48.8207ZM50.2738 64.688C50.2738 64.016 50.4098 63.428 50.6818 62.924C50.9538 62.412 51.3258 62.016 51.7978 61.736C52.2778 61.456 52.8138 61.316 53.4058 61.316C53.9178 61.316 54.3938 61.436 54.8338 61.676C55.2738 61.908 55.6098 62.216 55.8418 62.6V59.12H56.9458V68H55.8418V66.764C55.6258 67.156 55.3058 67.48 54.8818 67.736C54.4578 67.984 53.9618 68.108 53.3938 68.108C52.8098 68.108 52.2778 67.964 51.7978 67.676C51.3258 67.388 50.9538 66.984 50.6818 66.464C50.4098 65.944 50.2738 65.352 50.2738 64.688ZM55.8418 64.7C55.8418 64.204 55.7418 63.772 55.5418 63.404C55.3418 63.036 55.0698 62.756 54.7258 62.564C54.3898 62.364 54.0178 62.264 53.6098 62.264C53.2018 62.264 52.8298 62.36 52.4938 62.552C52.1578 62.744 51.8898 63.024 51.6898 63.392C51.4898 63.76 51.3898 64.192 51.3898 64.688C51.3898 65.192 51.4898 65.632 51.6898 66.008C51.8898 66.376 52.1578 66.66 52.4938 66.86C52.8298 67.052 53.2018 67.148 53.6098 67.148C54.0178 67.148 54.3898 67.052 54.7258 66.86C55.0698 66.66 55.3418 66.376 55.5418 66.008C55.7418 65.632 55.8418 65.196 55.8418 64.7ZM65.1944 61.304C65.9944 61.304 66.6424 61.548 67.1384 62.036C67.6344 62.516 67.8824 63.212 67.8824 64.124V68H66.8024V64.28C66.8024 63.624 66.6384 63.124 66.3104 62.78C65.9824 62.428 65.5344 62.252 64.9664 62.252C64.3904 62.252 63.9304 62.432 63.5864 62.792C63.2504 63.152 63.0824 63.676 63.0824 64.364V68H61.9904V61.424H63.0824V62.36C63.2984 62.024 63.5904 61.764 63.9584 61.58C64.3344 61.396 64.7464 61.304 65.1944 61.304ZM75.6662 64.46C75.6662 64.668 75.6542 64.888 75.6302 65.12H70.3742C70.4142 65.768 70.6342 66.276 71.0342 66.644C71.4422 67.004 71.9342 67.184 72.5102 67.184C72.9822 67.184 73.3742 67.076 73.6862 66.86C74.0062 66.636 74.2302 66.34 74.3582 65.972H75.5342C75.3582 66.604 75.0062 67.12 74.4782 67.52C73.9502 67.912 73.2942 68.108 72.5102 68.108C71.8862 68.108 71.3262 67.968 70.8302 67.688C70.3422 67.408 69.9582 67.012 69.6782 66.5C69.3982 65.98 69.2582 65.38 69.2582 64.7C69.2582 64.02 69.3942 63.424 69.6662 62.912C69.9382 62.4 70.3182 62.008 70.8062 61.736C71.3022 61.456 71.8702 61.316 72.5102 61.316C73.1342 61.316 73.6862 61.452 74.1662 61.724C74.6462 61.996 75.0142 62.372 75.2702 62.852C75.5342 63.324 75.6662 63.86 75.6662 64.46ZM74.5382 64.232C74.5382 63.816 74.4462 63.46 74.2622 63.164C74.0782 62.86 73.8262 62.632 73.5062 62.48C73.1942 62.32 72.8462 62.24 72.4622 62.24C71.9102 62.24 71.4382 62.416 71.0462 62.768C70.6622 63.12 70.4422 63.608 70.3862 64.232H74.5382ZM85.8676 61.424L83.8156 68H82.6876L81.1036 62.78L79.5196 68H78.3916L76.3276 61.424H77.4436L78.9556 66.944L80.5876 61.424H81.7036L83.2996 66.956L84.7876 61.424H85.8676ZM89.2793 68.108C88.7753 68.108 88.3233 68.024 87.9233 67.856C87.5233 67.68 87.2073 67.44 86.9753 67.136C86.7433 66.824 86.6153 66.468 86.5913 66.068H87.7193C87.7513 66.396 87.9033 66.664 88.1753 66.872C88.4553 67.08 88.8193 67.184 89.2673 67.184C89.6833 67.184 90.0113 67.092 90.2513 66.908C90.4913 66.724 90.6113 66.492 90.6113 66.212C90.6113 65.924 90.4833 65.712 90.2273 65.576C89.9713 65.432 89.5753 65.292 89.0393 65.156C88.5513 65.028 88.1513 64.9 87.8393 64.772C87.5353 64.636 87.2713 64.44 87.0473 64.184C86.8313 63.92 86.7233 63.576 86.7233 63.152C86.7233 62.816 86.8233 62.508 87.0233 62.228C87.2233 61.948 87.5073 61.728 87.8753 61.568C88.2433 61.4 88.6633 61.316 89.1353 61.316C89.8633 61.316 90.4513 61.5 90.8993 61.868C91.3473 62.236 91.5873 62.74 91.6193 63.38H90.5273C90.5033 63.036 90.3633 62.76 90.1073 62.552C89.8593 62.344 89.5233 62.24 89.0993 62.24C88.7073 62.24 88.3953 62.324 88.1633 62.492C87.9313 62.66 87.8153 62.88 87.8153 63.152C87.8153 63.368 87.8833 63.548 88.0193 63.692C88.1633 63.828 88.3393 63.94 88.5473 64.028C88.7633 64.108 89.0593 64.2 89.4353 64.304C89.9073 64.432 90.2913 64.56 90.5873 64.688C90.8833 64.808 91.1353 64.992 91.3433 65.24C91.5593 65.488 91.6713 65.812 91.6793 66.212C91.6793 66.572 91.5793 66.896 91.3793 67.184C91.1793 67.472 90.8953 67.7 90.5273 67.868C90.1673 68.028 89.7513 68.108 89.2793 68.108ZM97.7521 62.324V66.2C97.7521 66.52 97.8201 66.748 97.9561 66.884C98.0921 67.012 98.3281 67.076 98.6641 67.076H99.4681V68H98.4841C97.8761 68 97.4201 67.86 97.1161 67.58C96.8121 67.3 96.6601 66.84 96.6601 66.2V62.324H95.8081V61.424H96.6601V59.768H97.7521V61.424H99.4681V62.324H97.7521ZM103.659 68.108C103.043 68.108 102.483 67.968 101.979 67.688C101.483 67.408 101.091 67.012 100.803 66.5C100.523 65.98 100.383 65.38 100.383 64.7C100.383 64.028 100.527 63.436 100.815 62.924C101.111 62.404 101.511 62.008 102.015 61.736C102.519 61.456 103.083 61.316 103.707 61.316C104.331 61.316 104.895 61.456 105.399 61.736C105.903 62.008 106.299 62.4 106.587 62.912C106.883 63.424 107.031 64.02 107.031 64.7C107.031 65.38 106.879 65.98 106.575 66.5C106.279 67.012 105.875 67.408 105.363 67.688C104.851 67.968 104.283 68.108 103.659 68.108ZM103.659 67.148C104.051 67.148 104.419 67.056 104.763 66.872C105.107 66.688 105.383 66.412 105.591 66.044C105.807 65.676 105.915 65.228 105.915 64.7C105.915 64.172 105.811 63.724 105.603 63.356C105.395 62.988 105.123 62.716 104.787 62.54C104.451 62.356 104.087 62.264 103.695 62.264C103.295 62.264 102.927 62.356 102.591 62.54C102.263 62.716 101.999 62.988 101.799 63.356C101.599 63.724 101.499 64.172 101.499 64.7C101.499 65.236 101.595 65.688 101.787 66.056C101.987 66.424 102.251 66.7 102.579 66.884C102.907 67.06 103.267 67.148 103.659 67.148ZM108.059 64.688C108.059 64.016 108.195 63.428 108.467 62.924C108.739 62.412 109.111 62.016 109.583 61.736C110.063 61.456 110.599 61.316 111.191 61.316C111.703 61.316 112.179 61.436 112.619 61.676C113.059 61.908 113.395 62.216 113.627 62.6V59.12H114.731V68H113.627V66.764C113.411 67.156 113.091 67.48 112.667 67.736C112.243 67.984 111.747 68.108 111.179 68.108C110.595 68.108 110.063 67.964 109.583 67.676C109.111 67.388 108.739 66.984 108.467 66.464C108.195 65.944 108.059 65.352 108.059 64.688ZM113.627 64.7C113.627 64.204 113.527 63.772 113.327 63.404C113.127 63.036 112.855 62.756 112.511 62.564C112.175 62.364 111.803 62.264 111.395 62.264C110.987 62.264 110.615 62.36 110.279 62.552C109.943 62.744 109.675 63.024 109.475 63.392C109.275 63.76 109.175 64.192 109.175 64.688C109.175 65.192 109.275 65.632 109.475 66.008C109.675 66.376 109.943 66.66 110.279 66.86C110.615 67.052 110.987 67.148 111.395 67.148C111.803 67.148 112.175 67.052 112.511 66.86C112.855 66.66 113.127 66.376 113.327 66.008C113.527 65.632 113.627 65.196 113.627 64.7ZM116.168 64.688C116.168 64.016 116.304 63.428 116.576 62.924C116.848 62.412 117.22 62.016 117.692 61.736C118.172 61.456 118.704 61.316 119.288 61.316C119.864 61.316 120.364 61.44 120.788 61.688C121.212 61.936 121.528 62.248 121.736 62.624V61.424H122.84V68H121.736V66.776C121.52 67.16 121.196 67.48 120.764 67.736C120.34 67.984 119.844 68.108 119.276 68.108C118.692 68.108 118.164 67.964 117.692 67.676C117.22 67.388 116.848 66.984 116.576 66.464C116.304 65.944 116.168 65.352 116.168 64.688ZM121.736 64.7C121.736 64.204 121.636 63.772 121.436 63.404C121.236 63.036 120.964 62.756 120.62 62.564C120.284 62.364 119.912 62.264 119.504 62.264C119.096 62.264 118.724 62.36 118.388 62.552C118.052 62.744 117.784 63.024 117.584 63.392C117.384 63.76 117.284 64.192 117.284 64.688C117.284 65.192 117.384 65.632 117.584 66.008C117.784 66.376 118.052 66.66 118.388 66.86C118.724 67.052 119.096 67.148 119.504 67.148C119.912 67.148 120.284 67.052 120.62 66.86C120.964 66.66 121.236 66.376 121.436 66.008C121.636 65.632 121.736 65.196 121.736 64.7ZM130.35 61.424L126.39 71.096H125.262L126.558 67.928L123.906 61.424H125.118L127.182 66.752L129.222 61.424H130.35Z" fill="#696969"/>
</svg>